<svg xmlns="http://www.w3.org/2000/svg" xmlns:xlink="http://www.w3.org/1999/xlink" width="382.5" height="355" viewBox="0 0 382.5 355">
  <defs>
    <clipPath id="clip-path">
      <rect id="apple-laptop-macbook-computer-191158" width="382.5" height="355" transform="translate(785 5583)" fill="#f4f5fa"/>
    </clipPath>
  </defs>
  <g id="Mask_Group_28" data-name="Mask Group 28" transform="translate(-785 -5583)" clip-path="url(#clip-path)">
    <path id="Path_10234" data-name="Path 10234" d="M311.3,99.893c33.657,1.257,67.386,12.138,93.4,33.512,14.6,11.993,26.814,27.564,32.037,45.723,8.608,29.885-2.684,61.874-17.385,89.293A360.629,360.629,0,0,1,288.4,406.145c-8.148,4.909-16.587,9.527-25.678,12.356-12.549,3.869-25.9,4.159-39.025,4.425-16.828.339-33.9.629-50.219-3.482-15.329-3.869-29.45-11.509-42.772-20.02C90.766,373.914,55.344,338.54,39.1,294.027c-16.272-44.514-10.2-98.844,22.752-132.912,17.505-18.11,41.1-29.4,65.428-35.954,28.483-7.665,57.014-7.907,86.028-10.687C246.647,111.233,277.185,98.612,311.3,99.893Z" transform="translate(728.071 5660.443)" fill="#20bdea" opacity="0.95"/>
  </g>
</svg>
