<svg xmlns="http://www.w3.org/2000/svg" width="1989.232" height="83.649" viewBox="0 0 1989.232 83.649">
  <path id="Path_5225" data-name="Path 5225" d="M2216.208,3837.622l10.851,10h20.346l9.5,6.86v-6.86h113.941l16.277,6.86a41.792,41.792,0,0,0,9.495-6.86c4.069-4.116,48.832,0,48.832,0h29.841l27.129,6.86,21.7-6.86h18.99s23.059-2.744,27.129,0,9.5,6.86,9.5,6.86,6.782-2.745,10.851,0,10.852,0,10.852,0l50.189-6.86h119.366l16.277,6.86,6.782,6.862h37.981l8.138,6.861,32.554-6.861,12.208,6.861h31.2l39.337-6.861s18.991-8.232,42.05,0,16.277-4.117,20.346-13.722,33.912,0,33.912,0H3119.6s29.842-8.233,28.485,6.86,6.783,1.374,13.564,6.862,28.485,12.349,28.485,12.349,42.05,5.489,47.475,0,16.277-12.349,16.277-12.349h33.911l20.347-6.862h20.347s6.782-1.371,10.851-6.86,32.555-5.488,32.555-5.488l10.852,5.488H3393.6s40.692,6.86,58.326,0,74.6-12.35,90.882-5.488,32.554,10.977,36.624,12.349,23.059,6.862,23.059,6.862l6.783,6.861s21.7-6.862,27.128-13.722,5.426,10.977,21.7,0,18.99-15.093,25.772-12.349,56.971,5.488,56.971,5.488,4.069,2.744,20.346,6.86,43.406,12.35,55.614,6.862,23.059-20.583,27.128-19.21,10.852-1.372,27.129,5.488,16.278,13.721,36.624,6.86,0-6.86,17.634,0,40.694,4.117,54.258,0,8.138-5.488,16.277,0,23.06,0,23.06,0l14.92-6.86h20.347l28.485,6.86,12.208-6.86s24.416-4.116,47.476,0,29.841,0,29.841,0-4.069-6.861,0-13.721,0-41.417,0-41.417H2184.767v55.139Z" transform="translate(4174 3876.132) rotate(180)" fill="#ffffff"/>
</svg>
