<svg xmlns="http://www.w3.org/2000/svg" width="1920" height="24.656" viewBox="0 0 1920 24.656">
  <path id="Path_5221" data-name="Path 5221" d="M2214.932,2884.494l34.433-9.774,43.7,9.774s41.055-6.843,71.516,0,11.918,0,11.918,0l7.947,8.8s31.785,3.91,35.758,0,19.866-8.8,19.866-8.8h9.27s0,8.8,50.326,0,11.919,8.8,11.919,8.8h164.221s-22.514-3.91,14.568,0,34.433,2.933,47.677,0,64.894,0,64.894,0,.993,4.154,6.953,0,10.926.978,17.879-4.154,18.872.977,17.878,4.154,26.819,0,26.819,0,11.919-5.376,30.792,0,25.824,0,25.824,0l22.846-4.154,14.9,4.154h255.272s23.839-14.907,40.724-8.8,57.61,1.711,59.6-6.354,4.966,0,4.966,0h10.926l13.906,11,17.879-4.643,11.919,4.643s51.651-11.73,70.522,0,33.771-4.643,33.771-4.643l41.718,8.8h36.751l8.939-4.154s22.845,4.644,34.765,4.154,28.8,0,28.8,0l11.919-8.8h49.664l24.832,8.8h21.852l6.954-4.154,17.878,4.154h20.859l9.933-4.154,29.8-4.643h16.885l32.779,4.643h34.764l21.852-4.643h9.932l4.966-6.354h28.805l27.812,6.354h16.885s14.9,6.843,18.872,4.643,10.926,0,10.926,0,18.873-11.73,36.752,0,27.811,0,27.811,0H4125v10.074H2205v-10.074Z" transform="translate(-2205 -2874.556)" fill="#fff" opacity="0.99"/>
</svg>
