<svg xmlns="http://www.w3.org/2000/svg" width="1920" height="64.348" viewBox="0 0 1920 64.348">
  <path fill="#fff" id="Path_5222" data-name="Path 5222" d="M2215.9,3908.383l10.576,14.436h19.83l9.255,9.9v-9.9h111.049l15.864,9.9a45.073,45.073,0,0,0,9.254-9.9c3.966-5.942,47.593,0,47.593,0H2468.4l26.441,9.9,21.152-9.9H2534.5s22.474-3.961,26.44,0,9.254,9.9,9.254,9.9,6.61-3.962,10.576,0,10.576,0,10.576,0l48.915-9.9H2756.6l15.864,9.9,6.61,9.906h37.017l7.932,9.9,31.728-9.9,11.9,9.9h30.406l38.338-9.9s18.509-11.884,40.983,0,15.864-5.943,19.83-19.809,33.051,0,33.051,0h66.1s29.084-11.885,27.762,9.9,6.611,1.983,13.22,9.906,27.762,17.826,27.762,17.826,40.982,7.924,46.27,0,15.864-17.826,15.864-17.826h33.05l19.83-9.906h19.83s6.61-1.978,10.576-9.9,31.729-7.923,31.729-7.923l10.576,7.923H3363.4s39.66,9.9,56.846,0,72.711-17.828,88.575-7.923,31.728,15.846,35.694,17.826,22.474,9.906,22.474,9.906l6.611,9.9s21.152-9.906,26.44-19.81,5.288,15.847,21.152,0,18.508-21.788,25.118-17.826,55.525,7.923,55.525,7.923,3.966,3.962,19.83,9.9,42.3,17.828,54.2,9.906,22.474-29.712,26.44-27.731,10.576-1.981,26.44,7.923,15.865,19.807,35.694,9.9,0-9.9,17.186,0,39.661,5.943,52.881,0,7.932-7.923,15.864,0,22.474,0,22.474,0l14.542-9.9h19.83l27.762,9.9,11.9-9.9s23.8-5.942,46.271,0,29.083,0,29.083,0-3.966-9.9,0-19.808,0,5.088,0,5.088H2204v14.719Z" transform="translate(-2204 -3899.627)" opacity="0.99"/>
</svg>
